<mxfile host="app.diagrams.net" agent="Mozilla/5.0 (Windows NT 10.0; Win64; x64) AppleWebKit/537.36 (KHTML, like Gecko) Chrome/131.0.0.0 Safari/537.36" version="24.8.6">
  <diagram name="1 oldal" id="RXlgsFzh4fAoj3YQCDtV">
    <mxGraphModel dx="1114" dy="600" grid="1" gridSize="10" guides="1" tooltips="1" connect="1" arrows="1" fold="1" page="1" pageScale="1" pageWidth="827" pageHeight="1169" math="0" shadow="0">
      <root>
        <mxCell id="0" />
        <mxCell id="1" parent="0" />
        <mxCell id="7V68VcI1t-8MMACWyIm5-1" value="" style="rounded=0;whiteSpace=wrap;html=1;fillColor=none;" vertex="1" parent="1">
          <mxGeometry x="30" y="20" width="770" height="530" as="geometry" />
        </mxCell>
        <mxCell id="7V68VcI1t-8MMACWyIm5-2" style="edgeStyle=orthogonalEdgeStyle;rounded=0;orthogonalLoop=1;jettySize=auto;html=1;exitX=0.5;exitY=1;exitDx=0;exitDy=0;" edge="1" parent="1" source="7V68VcI1t-8MMACWyIm5-1" target="7V68VcI1t-8MMACWyIm5-1">
          <mxGeometry relative="1" as="geometry" />
        </mxCell>
        <mxCell id="7V68VcI1t-8MMACWyIm5-3" value="Ikon/oldal neve" style="rounded=0;whiteSpace=wrap;html=1;fillColor=none;" vertex="1" parent="1">
          <mxGeometry x="50" y="40" width="180" height="130" as="geometry" />
        </mxCell>
        <mxCell id="7V68VcI1t-8MMACWyIm5-4" value="Fejlec, NAV" style="rounded=0;whiteSpace=wrap;html=1;fillColor=none;" vertex="1" parent="1">
          <mxGeometry x="250" y="40" width="530" height="40" as="geometry" />
        </mxCell>
        <mxCell id="7V68VcI1t-8MMACWyIm5-5" value="Aside" style="rounded=0;whiteSpace=wrap;html=1;fillColor=none;" vertex="1" parent="1">
          <mxGeometry x="660" y="90" width="120" height="380" as="geometry" />
        </mxCell>
        <mxCell id="7V68VcI1t-8MMACWyIm5-6" style="edgeStyle=orthogonalEdgeStyle;rounded=0;orthogonalLoop=1;jettySize=auto;html=1;exitX=0.5;exitY=1;exitDx=0;exitDy=0;" edge="1" parent="1" source="7V68VcI1t-8MMACWyIm5-5" target="7V68VcI1t-8MMACWyIm5-5">
          <mxGeometry relative="1" as="geometry" />
        </mxCell>
        <mxCell id="7V68VcI1t-8MMACWyIm5-7" value="Footer (neveink)" style="rounded=0;whiteSpace=wrap;html=1;fillColor=none;" vertex="1" parent="1">
          <mxGeometry x="50" y="480" width="730" height="60" as="geometry" />
        </mxCell>
        <mxCell id="7V68VcI1t-8MMACWyIm5-11" value="Article" style="whiteSpace=wrap;html=1;fillColor=none;" vertex="1" parent="1">
          <mxGeometry x="250" y="90" width="390" height="380" as="geometry" />
        </mxCell>
        <mxCell id="7V68VcI1t-8MMACWyIm5-13" value="&lt;h1 style=&quot;margin-top: 0px;&quot;&gt;Heading&lt;/h1&gt;&lt;p&gt;Lorem ipsum dolor sit amet, consectetur adipisicing elit, sed do eiusmod tempor incididunt ut labore et dolore magna aliqua.&lt;/p&gt;" style="text;html=1;whiteSpace=wrap;overflow=hidden;rounded=0;" vertex="1" parent="1">
          <mxGeometry x="260" y="100" width="370" height="310" as="geometry" />
        </mxCell>
        <mxCell id="7V68VcI1t-8MMACWyIm5-43" value="" style="whiteSpace=wrap;html=1;fillColor=none;" vertex="1" parent="1">
          <mxGeometry x="50" y="190" width="180" height="280" as="geometry" />
        </mxCell>
        <mxCell id="7V68VcI1t-8MMACWyIm5-44" value="Title" style="rounded=0;whiteSpace=wrap;html=1;fillColor=none;" vertex="1" parent="1">
          <mxGeometry x="50" y="190" width="180" height="50" as="geometry" />
        </mxCell>
        <mxCell id="7V68VcI1t-8MMACWyIm5-45" value="&lt;ul&gt;&lt;li&gt;Value 1&lt;/li&gt;&lt;li&gt;Value 2&lt;/li&gt;&lt;li&gt;Value 3&lt;/li&gt;&lt;/ul&gt;" style="text;strokeColor=none;fillColor=none;html=1;whiteSpace=wrap;verticalAlign=middle;overflow=hidden;" vertex="1" parent="1">
          <mxGeometry x="50" y="240" width="180" height="70" as="geometry" />
        </mxCell>
        <mxCell id="7V68VcI1t-8MMACWyIm5-46" value="" style="rounded=0;whiteSpace=wrap;html=1;fillColor=none;strokeColor=#b85450;" vertex="1" parent="1">
          <mxGeometry x="40" y="30" width="200" height="440" as="geometry" />
        </mxCell>
        <mxCell id="7V68VcI1t-8MMACWyIm5-47" value="" style="rounded=0;whiteSpace=wrap;html=1;fillColor=none;strokeColor=#b85450;" vertex="1" parent="1">
          <mxGeometry x="240" y="30" width="550" height="440" as="geometry" />
        </mxCell>
      </root>
    </mxGraphModel>
  </diagram>
</mxfile>
